# AST/ASF file generated using VICON BodyLanguage
# -----------------------------------------------
:version 1.10
:name VICON
:units
  mass 1.0
  length 0.45
  angle deg
:documentation
   .ast/.asf automatically generated from VICON data using
   VICON BodyBuilder and BodyLanguage model FoxedUp or BRILLIANT.MOD
:root
   order TX TY TZ RX RY RZ
   axis XYZ
   position 0 0 0  
   orientation 0 0 0 
:bonedata
  begin
     id 1 
     name lhipjoint
     direction 0.602128 -0.715006 0.355257 
     length 2.21237 
     axis 0 0 0  XYZ
  end
  begin
     id 2 
     name lfemur
     direction 0.34202 -0.939693 0  
     length 6.71649  
     axis 0 0 20  XYZ
    dof rx ry rz
    limits (-160.0 20.0)
           (-70.0 70.0)
           (-60.0 70.0)
  end
  begin
     id 3 
     name ltibia
     direction 0.34202 -0.939693 0   
     length 6.97123   
     axis 0 0 20   XYZ
    dof rx
    limits (-10.0 170.0)
  end
  begin
     id 4 
     name lfoot
     direction 0.0655697 -0.180151 0.981451   
     length 1.80924   
     axis -90 7.62852e-016 20   XYZ
    dof rx rz
    limits (-45.0 90.0)
           (-70.0 20.0)
  end
  begin
     id 5 
     name ltoes
     direction 1.53545e-011 -4.21827e-011 1   
     length 0.916331   
     axis -90 7.62852e-016 20   XYZ
    dof rx
    limits (-90.0 20.0)
  end
  begin
     id 6 
     name rhipjoint
     direction -0.625414 -0.698792 0.347201   
     length 2.2637  
     axis 0 0 0  XYZ 
  end
  begin
     id 7 
     name rfemur
     direction -0.34202 -0.939693 0   
     length 7.07595   
     axis 0 0 -20   XYZ
    dof rx ry rz
    limits (-160.0 20.0)
           (-70.0 70.0)
           (-70.0 60.0)
  end
  begin
     id 8 
     name rtibia
     direction -0.34202 -0.939693 0   
     length 7.22924   
     axis 0 0 -20   XYZ
    dof rx
    limits (-10.0 170.0)
 end
 begin
     id 9 
     name rfoot
     direction -0.0766747 -0.210662 0.974547   
     length 1.98482  
     axis -90 -7.62852e-016 -20   XYZ
    dof rx rz
    limits (-45.0 90.0)
           (-20.0 70.0)
  end
  begin
     id 10 
     name rtoes
     direction -1.53532e-011 -4.21867e-011 1   
     length 0.999842   
     axis -90 -7.62852e-016 -20   XYZ
    dof rx
    limits (-90.0 20.0)
  end
  begin
     id 11 
     name lowerback
     direction -0.0224668 0.997354 -0.0691422   
     length 2.09945   
     axis 0 0 0   XYZ
    dof rx ry rz
    limits (-20.0 45.0)
           (-30.0 30.0)
           (-30.0 30.0)
  end
  begin
     id 12 
     name upperback
     direction 0.0134698 0.998451 -0.0539888   
     length 2.09758   
     axis 0 0 0   XYZ
    dof rx ry rz
    limits (-20.0 45.0)
           (-30.0 30.0)
           (-30.0 30.0)
  end
  begin
     id 13 
     name thorax
     direction 0.0241905 0.99948 -0.0213333   
     length 2.10428   
     axis 0 0 0   XYZ
    dof rx ry rz
    limits (-20.0 45.0)
           (-30.0 30.0)
           (-30.0 30.0)
  end
  begin
     id 14 
     name lowerneck
     direction -0.00866847 0.995978 0.0891737   
     length 1.3959   
     axis 0 0 0   XYZ
    dof rx ry rz
    limits (-20.0 45.0)
           (-30.0 30.0)
           (-30.0 30.0)
  end
  begin
     id 15 
     name upperneck
     direction 0.0680679 0.992203 0.104404   
     length 1.39452   
     axis 0 0 0   XYZ
    dof rx ry rz
    limits (-20.0 45.0)
           (-30.0 30.0)
           (-30.0 30.0)
  end
  begin
     id 16
     name head
     direction 0.0242216 0.999358 0.0264054  
     length 1.40433  
     axis 0 0 0   XYZ
    dof rx ry rz
    limits (-20.0 45.0)
           (-30.0 30.0)
           (-30.0 30.0)
  end
  begin
     id 17 
     name lclavicle
     direction 0.929368 0.362991 -0.0671771  
     length 3.04887  
     axis 0 0 0   XYZ
    dof ry rz
    limits (-20.0 10.0)
           (0.0 20.0)
  end
  begin
     id 18 
     name lhumerus
     direction 1 -4.48967e-011 -7.13741e-028   
     length 4.77195   
     axis -180 -30 -90   XYZ
    dof rx ry rz
    limits (-60.0 90.0)
           (-90.0 90.0)
           (-90.0 90.0)
  end
  begin
     id 19
     name lradius
     direction 1 -4.48977e-011 3.60404e-027   
     length 2.98444   
     axis -180 -30 -90   XYZ
    dof rx
    limits (-10.0 170.0)
  end
  begin
     id 20
     name lwrist
     direction 1 -4.48997e-011 7.54877e-027   
     length 1.49222   
     axis -7.18178e-015 90 90   XYZ
    dof ry
    limits (-180.0 0.0)
 end
  begin
     id 21 
     name lhand
     direction 1 -4.489e-011 1.51105e-026   
     length 0.992285   
     axis -9.63605e-015 90 90   XYZ
    dof rx rz
    limits (-90.0 90.0)
           (-45.0 45.0)
  end
  begin
     id 22 
     name lfingers
     direction 1 -4.48998e-011 3.01948e-026   
     length 0.800006   
     axis -1.92718e-014 90 90   XYZ
    dof rx
    limits (0.0 90.0)
  end
  begin
     id 23
     name lthumb
     direction 0.707107 -6.34881e-011 0.707107   
     length 1.14865   
     axis -90 45 -3.53137e-014   XYZ
    dof rx rz
    limits (-45.0 45.0)
           (-45.0 45.0)
  end
  begin
     id 24 
     name rclavicle
     direction -0.945672 0.324529 0.0196374   
     length 3.4236  
     axis 0 0 0   XYZ 
    dof ry rz
    limits (-10.0 20.0)
           (-20.0 0.0)
  end
  begin
     id 25 
     name rhumerus
     direction -1 -4.4896e-011 1.02757e-029  
     length 4.62052   
     axis -180 30 90   XYZ
    dof rx ry rz
    limits (-90.0 60.0)
           (-90.0 90.0)
           (-90.0 90.0)
  end
  begin
     id 26 
     name rradius
     direction -1 -4.48982e-011 3.85962e-027   
     length 2.95332   
     axis -180 30 90   XYZ
    dof rx
    limits (-10.0 170.0)
  end
  begin
     id 27 
     name rwrist
     direction -1 -4.48961e-011 7.55118e-027   
     length 1.47666   
     axis -7.18178e-015 -90 -90   XYZ
    dof ry
    limits (-180.0 0.0)
  end
  begin
     id 28
     name rhand
     direction -1 -4.48984e-011 1.50994e-026   
     length 0.990956   
     axis -9.63605e-015 -90 -90   XYZ
    dof rx rz
    limits (-90.0 90.0)
           (-45.0 45.0)
  end
  begin
     id 29
     name rfingers
     direction -1 -4.4892e-011 3.02158e-026   
     length 0.798934   
     axis -1.92718e-014 -90 -90   XYZ
    dof rx
    limits (0.0 90.0)
  end
  begin
     id 30
     name rthumb
     direction -0.707107 -6.34916e-011 0.707107   
     length 1.14711   
     axis -90 -45 3.53137e-014   XYZ
    dof rx rz
    limits (-45.0 45.0)
           (-45.0 45.0)
  end
:hierarchy
  begin
    root lhipjoint rhipjoint lowerback
    lhipjoint lfemur
    lfemur ltibia
    ltibia lfoot
    lfoot ltoes
    rhipjoint rfemur
    rfemur rtibia
    rtibia rfoot
    rfoot rtoes
    lowerback upperback
    upperback thorax
    thorax lowerneck lclavicle rclavicle
    lowerneck upperneck
    upperneck head
    lclavicle lhumerus
    lhumerus lradius
    lradius lwrist
    lwrist lhand lthumb
    lhand lfingers
    rclavicle rhumerus
    rhumerus rradius
    rradius rwrist
    rwrist rhand rthumb
    rhand rfingers
  end

#!OML:ASF H:\ManfredObstacles\Project 1\Capture day 1\Session 1\Male.ASF
:FULLY-SPECIFIED
:DEGREES
225
root -12.1278 16.348 17.1017 -172.006 15.0313 -177.562
lowerback -8.67653 -1.57986 -0.47197
upperback 2.59112 -2.08829 0.480171
thorax 7.64004 -1.05316 0.454732
lowerneck 0.841166 -3.39593 -5.81542
upperneck -3.26166 -4.13276 11.9089
head -0.709245 -2.06756 4.54172
rclavicle -5.95857e-014 0
rhumerus -36.9999 -16.5565 -77.7003
rradius 30.9854
rwrist 27.347
rhand -0.978261 -5.60345
rfingers 7.12502
rthumb 24.653 -34.0355
lclavicle -5.95857e-014 0
lhumerus -27.3916 13.8367 80.3212
lradius 20.2992
lwrist -29.2384
lhand -6.65376 8.82344
lfingers 7.12502
lthumb 19.2038 37.8953
rfemur -13.7947 1.1598 29.9326
rtibia 27.6249
rfoot -18.6173 19.5772
rtoes 39.0168
lfemur -37.7942 -8.61084 -11.2599
ltibia 55.9121
lfoot -2.48748 2.36373
ltoes 8.01924
226
root -12.0826 16.3414 16.9243 -171.89 16.2813 -177.721
lowerback -8.8499 -1.43731 -0.493693
upperback 2.59206 -1.88622 0.355705
thorax 7.73442 -0.95229 0.362179
lowerneck 1.14187 -3.37195 -5.71779
upperneck -3.27232 -4.13005 11.3846
head -0.865187 -2.06597 4.85536
rclavicle 6.06293e-015 2.78299e-015
rhumerus -36.8171 -16.4388 -77.8916
rradius 30.9552
rwrist 27.4067
rhand -0.908 -5.5461
rfingers 7.12502
rthumb 24.7204 -33.969
lclavicle 6.06293e-015 2.78299e-015
lhumerus -27.6902 13.981 79.975
lradius 20.0619
lwrist -29.8437
lhand -7.17932 8.45644
lfingers 7.12502
lthumb 18.6983 37.5778
rfemur -13.2261 1.92749 29.6403
rtibia 27.7317
rfoot -19.1772 19.9021
rtoes 38.8301
lfemur -38.1142 -9.65663 -10.7227
ltibia 51.9029
lfoot -2.66355 1.95039
ltoes 4.59519
227
root -12.0318 16.341 16.7548 -171.971 17.341 -178.641
lowerback -8.9896 -1.41833 -1.33153
upperback 2.58927 -1.7379 0.0684828
thorax 7.82772 -0.912276 0.549782
lowerneck 1.22614 -3.32302 -5.7407
upperneck -3.22367 -4.0773 11.3428
head -0.870311 -2.04282 4.84619
rclavicle -3.23522e-014 -6.75868e-015
rhumerus -36.6643 -16.3445 -78.0729
rradius 31.0397
rwrist 27.432
rhand -0.728516 -5.61646
rfingers 7.12502
rthumb 24.8924 -34.0156
lclavicle -3.23522e-014 -6.75868e-015
lhumerus -27.8282 14.1094 79.7143
lradius 19.8573
lwrist -30.0756
lhand -7.28048 8.60779
lfingers 7.12502
lthumb 18.601 37.7384
rfemur -12.6796 2.45918 28.5825
rtibia 27.7389
rfoot -19.7598 20.1433
rtoes 38.4408
lfemur -38.3288 -11.0016 -10.8875
ltibia 47.6151
lfoot -2.5657 1.47994
ltoes 3.40822
228
root -11.975 16.3521 16.5738 -172.488 18.4493 -180.44
lowerback -9.05636 -1.51554 -3.09052
upperback 2.61526 -1.6121 -0.356735
thorax 7.93503 -0.921492 1.10732
lowerneck 1.14425 -3.22672 -5.95175
upperneck -3.04467 -3.97124 11.3546
head -0.803022 -1.98587 4.88839
rclavicle 1.59525e-014 -2.78299e-014
rhumerus -36.6005 -15.9805 -78.1932
rradius 31.2441
rwrist 27.4679
rhand -0.560086 -5.86591
rfingers 7.12502
rthumb 25.0538 -34.2427
lclavicle 1.59525e-014 -2.78299e-014
lhumerus -28.1822 14.2973 79.5335
lradius 19.7946
lwrist -30.5135
lhand -7.21049 8.90027
lfingers 7.12502
lthumb 18.6684 38.0245
rfemur -11.8776 2.78006 26.6031
rtibia 27.6121
rfoot -20.0506 20.6392
rtoes 38.574
lfemur -38.116 -12.4797 -12.0061
ltibia 43.1414
lfoot -2.11443 0.932264
ltoes 4.68379
229
root -11.9228 16.3297 16.41 -171.554 19.0179 -179.365
lowerback -9.32323 -1.53538 -2.0835
upperback 2.37985 -1.79336 0.00223541
thorax 7.82056 -0.972055 0.888483
lowerneck 1.25518 -3.11253 -6.10442
upperneck -3.0468 -3.82108 11.7054
head -0.742673 -1.92757 4.53384
rclavicle -3.69243e-014 2.26615e-014
rhumerus -36.6301 -15.5735 -78.2514
rradius 31.3553
rwrist 27.5477
rhand -0.497331 -5.85886
rfingers 7.12502
rthumb 25.1139 -34.2272
lclavicle -3.69243e-014 2.26615e-014
lhumerus -28.809 14.5409 79.2554
lradius 19.9311
lwrist -30.9017
lhand -6.78681 9.06485
lfingers 7.12502
lthumb 19.0758 38.1494
rfemur -11.7187 3.37171 27.702
rtibia 27.3544
rfoot -19.7932 20.7513
rtoes 39.1813
lfemur -38.9106 -13.097 -9.96944
ltibia 38.7597
lfoot -0.967612 -0.367458
ltoes 3.61065
230
root -11.8783 16.3095 16.2408 -171.036 19.5227 -178.073
lowerback -9.1577 -1.48002 -0.663114
upperback 2.3464 -1.92035 0.311812
thorax 7.65362 -0.975959 0.401377
lowerneck 1.36816 -3.05072 -6.14007
upperneck -3.02505 -3.74527 11.7374
head -0.760641 -1.89367 4.55142
rclavicle -1.42628e-014 1.11319e-014
rhumerus -36.5808 -15.192 -78.4051
rradius 31.4302
rwrist 27.4004
rhand -0.471629 -5.72503
rfingers 7.12502
rthumb 25.1386 -34.0899
lclavicle -1.42628e-014 1.11319e-014
lhumerus -29.1818 15.0443 78.8321
lradius 19.8136
lwrist -31.6033
lhand -6.50434 8.94087
lfingers 7.12502
lthumb 19.3475 37.9984
rfemur -10.7223 3.55972 28.9948
rtibia 26.5933
rfoot -19.1299 21.3406
rtoes 40.625
lfemur -39.0929 -13.6889 -7.99281
ltibia 34.6574
lfoot -0.421929 -1.87962
ltoes 1.13327
231
root -11.8184 16.3182 16.051 -171.051 20.6149 -178.706
lowerback -9.48677 -1.38938 -1.19112
upperback 2.40922 -1.7133 0.0809676
thorax 7.91709 -0.893741 0.478519
lowerneck 1.17334 -3.11912 -5.89407
upperneck -2.78029 -3.85981 11.2285
head -0.736916 -1.93124 4.82665
rclavicle -5.52621e-014 6.75868e-015
rhumerus -36.4842 -14.8998 -78.6605
rradius 31.5962
rwrist 27.1548
rhand -0.481282 -5.75407
rfingers 7.12502
rthumb 25.1293 -34.1202
lclavicle -5.52621e-014 6.75868e-015
lhumerus -29.2387 15.4689 78.4521
lradius 19.4551
lwrist -32.2256
lhand -6.55192 8.80862
lfingers 7.12502
lthumb 19.3017 37.8707
rfemur -9.75655 3.62515 28.1952
rtibia 25.7845
rfoot -18.8474 22.2493
rtoes 41.4068
lfemur -39.0222 -14.5492 -8.0425
ltibia 30.7213
lfoot 0.0970158 -2.55382
ltoes 0.0186889
232
root -11.7688 16.3112 15.8341 -171.052 22.1877 -177.348
lowerback -9.2798 -0.940964 0.403055
upperback 2.67427 -1.32643 0.28464
thorax 8.04098 -0.63235 -0.13907
lowerneck 0.921634 -3.17602 -5.60983
upperneck -2.50215 -3.95725 10.9405
head -0.603011 -1.97206 4.6521
rclavicle 5.44173e-014 8.34896e-015
rhumerus -36.5594 -14.5433 -78.8581
rradius 31.9058
rwrist 26.9753
rhand -0.56343 -5.739
rfingers 7.12502
rthumb 25.0506 -34.1162
lclavicle 5.44173e-014 8.34896e-015
lhumerus -29.4204 15.6712 78.2039
lradius 19.2196
lwrist -32.4617
lhand -6.58793 8.96059
lfingers 7.12502
lthumb 19.2671 38.0262
rfemur -7.87527 3.94049 29.3026
rtibia 24.855
rfoot -18.5966 23.3343
rtoes 41.6406
lfemur -37.9442 -14.3517 -6.64211
ltibia 27.0221
lfoot 0.513736 -4.10485
ltoes -4.51196
233
root -11.6951 16.3201 15.6435 -171.046 23.2335 -178.58
lowerback -9.74068 -1.01149 -0.941376
upperback 2.53777 -1.23413 0.0569529
thorax 8.18598 -0.648213 0.384859
lowerneck 0.981046 -3.08679 -5.66524
upperneck -2.40212 -3.85494 10.8694
head -0.591355 -1.92273 4.6377
rclavicle 7.92157e-014 -9.54166e-015
rhumerus -36.7134 -13.9507 -78.9773
rradius 32.2079
rwrist 26.6902
rhand -0.553507 -5.76722
rfingers 7.12502
rthumb 25.0601 -34.1431
lclavicle 7.92157e-014 -9.54166e-015
lhumerus -29.8454 16.0068 77.9274
lradius 19.0632
lwrist -32.8216
lhand -6.60273 8.93676
lfingers 7.12502
lthumb 19.2529 38.0037
rfemur -7.22002 4.10133 27.9103
rtibia 24.1317
rfoot -18.1634 23.8914
rtoes 42.2852
lfemur -37.9359 -13.6297 -8.0709
ltibia 23.5118
lfoot 1.70017 -6.89814
ltoes -5.23526
234
root -11.6272 16.3203 15.4396 -171.101 24.3081 -178.839
lowerback -9.89184 -0.95398 -1.21484
upperback 2.56455 -1.1182 0.0399596
thorax 8.30616 -0.605284 0.53758
lowerneck 1.05889 -2.98166 -5.79813
upperneck -2.44738 -3.7159 10.9189
head -0.629771 -1.85621 4.68591
rclavicle -2.4202e-014 6.55989e-015
rhumerus -36.7138 -13.469 -79.048
rradius 32.35
rwrist 26.4364
rhand -0.402271 -5.92319
rfingers 7.12502
rthumb 25.205 -34.2787
lclavicle -2.4202e-014 6.55989e-015
lhumerus -30.1728 16.6701 77.5548
lradius 18.7661
lwrist -33.4349
lhand -6.65726 8.60198
lfingers 7.12502
lthumb 19.2004 37.6742
rfemur -5.99136 4.33663 27.4851
rtibia 23.3038
rfoot -17.6679 24.4528
rtoes 42.8209
lfemur -37.4796 -12.2835 -9.02742
ltibia 20.7503
lfoot 3.25279 -9.50767
ltoes -0.450803
235
root -11.562 16.3039 15.2412 -170.872 25.1932 -178.333
lowerback -9.92052 -0.839804 -0.713812
upperback 2.62196 -1.03979 0.150686
thorax 8.37533 -0.545344 0.385166
lowerneck 0.987742 -2.96075 -5.76409
upperneck -2.43896 -3.68505 10.921
head -0.61765 -1.839 4.67812
rclavicle -7.95139e-016 1.98785e-016
rhumerus -36.6738 -13.4454 -79.0836
rradius 32.4338
rwrist 26.4354
rhand -0.279913 -5.82517
rfingers 7.12502
rthumb 25.3222 -34.1642
lclavicle -7.95139e-016 1.98785e-016
lhumerus -30.353 17.4167 77.0901
lradius 18.404
lwrist -34.1992
lhand -6.60064 8.55381
lfingers 7.12502
lthumb 19.2549 37.6206
rfemur -4.91609 4.61101 27.8514
rtibia 22.8218
rfoot -17.5674 24.7642
rtoes 42.508
lfemur -36.8543 -9.55393 -9.96573
ltibia 18.1315
lfoot 6.41662 -12.4715
ltoes 5.21348
236
root -11.4951 16.2944 15.046 -170.549 25.8953 -177.929
lowerback -10.0164 -0.778999 -0.288982
upperback 2.61244 -1.0176 0.192347
thorax 8.41313 -0.514035 0.192603
lowerneck 1.04961 -2.94856 -5.56695
upperneck -2.48043 -3.66441 10.8403
head -0.649441 -1.83187 4.611
rclavicle 8.29429e-014 -5.1684e-015
rhumerus -36.7094 -13.5797 -79.1682
rradius 32.4859
rwrist 26.4832
rhand -0.234704 -5.68769
rfingers 7.12502
rthumb 25.3655 -34.0206
lclavicle 8.29429e-014 -5.1684e-015
lhumerus -30.5739 17.9291 76.5953
lradius 18.0639
lwrist -34.8455
lhand -6.53392 8.74418
lfingers 7.12502
lthumb 19.319 37.8046
rfemur -4.02354 4.77951 28.0802
rtibia 22.3427
rfoot -17.1074 25.1799
rtoes 42.7192
lfemur -36.4747 -8.17054 -10.3702
ltibia 16.0483
lfoot 7.66896 -15.4744
ltoes 1.75986
237
root -11.4288 16.2945 14.8399 -170.598 26.8302 -178.201
lowerback -10.1288 -0.756797 -0.464835
upperback 2.59176 -0.955866 0.0874013
thorax 8.45676 -0.490044 0.189626
lowerneck 1.20127 -2.86122 -5.43001
upperneck -2.45304 -3.55675 10.7027
head -0.682994 -1.78345 4.53674
rclavicle 4.60187e-014 -2.14687e-014
rhumerus -36.7423 -13.4494 -79.2972
rradius 32.4362
rwrist 26.5305
rhand -0.320414 -5.7846
rfingers 7.12502
rthumb 25.2834 -34.1291
lclavicle 4.60187e-014 -2.14687e-014
lhumerus -30.9437 18.6008 76.0381
lradius 17.6963
lwrist -35.4661
lhand -6.57537 8.85822
lfingers 7.12502
lthumb 19.2792 37.9226
rfemur -3.04014 4.96292 27.5298
rtibia 21.9188
rfoot -16.353 25.854
rtoes 43.3193
lfemur -36.0553 -7.99811 -10.8715
ltibia 14.8748
lfoot 8.08251 -15.9106
ltoes 2.60826
238
root -11.3616 16.2932 14.6284 -171.309 28.0236 -179.369
lowerback -9.96582 -0.781698 -1.55289
upperback 2.60171 -0.824361 -0.158296
thorax 8.38564 -0.473705 0.566665
lowerneck 1.28542 -2.72962 -5.52581
upperneck -2.31857 -3.40116 10.6494
head -0.668251 -1.7073 4.53678
rclavicle -8.59744e-015 6.75868e-015
rhumerus -36.7526 -13.147 -79.3492
rradius 32.3666
rwrist 26.5375
rhand -0.410969 -5.85124
rfingers 7.12502
rthumb 25.1967 -34.208
lclavicle -8.59744e-015 6.75868e-015
lhumerus -31.3993 19.7033 75.375
lradius 17.2682
lwrist -36.5075
lhand -6.47998 8.94916
lfingers 7.12502
lthumb 19.3709 38.0043
rfemur -1.89613 5.17986 26.0826
rtibia 21.7536
rfoot -15.7962 26.4748
rtoes 43.1978
lfemur -35.1271 -8.23509 -12.1026
ltibia 14.0703
lfoot 7.72076 -14.8667
ltoes 3.64888
239
root -11.2873 16.2664 14.4112 -170.211 28.6099 -178.083
lowerback -10.5032 -0.747401 -0.462772
upperback 2.4599 -0.952627 0.207282
thorax 8.53346 -0.491813 0.312347
lowerneck 1.3577 -2.63855 -5.70717
upperneck -2.30377 -3.28405 10.773
head -0.682399 -1.65037 4.61996
rclavicle 1.85864e-014 -1.39149e-014
rhumerus -36.7169 -13.0752 -79.3275
rradius 32.2642
rwrist 26.5924
rhand -0.320629 -5.90851
rfingers 7.12502
rthumb 25.2832 -34.253
lclavicle 1.85864e-014 -1.39149e-014
lhumerus -31.7713 21.0251 74.5784
lradius 16.7149
lwrist -37.9824
lhand -6.28514 8.93903
lfingers 7.12502
lthumb 19.5582 37.9753
rfemur -1.6481 5.46404 27.0864
rtibia 21.9332
rfoot -15.4348 26.7189
rtoes 42.7718
lfemur -34.9631 -8.11231 -10.9405
ltibia 13.5905
lfoot 6.86288 -14.3682
ltoes 0.735766
